<svg version="1.1" id="Layer_1" xmlns="http://www.w3.org/2000/svg" xmlns:xlink="http://www.w3.org/1999/xlink" x="0px" y="0px"
	 width="100%" viewBox="0 0 1080 370" enable-background="new 0 0 1080 370" xml:space="preserve">
<path fill="#FEFEFE" opacity="1.000000" stroke="none"
	d="
M703.000000,371.000000
	C468.666656,371.000000 234.833328,371.000000 1.000000,371.000000
	C1.000000,247.666672 1.000000,124.333336 1.000000,1.000000
	C361.000000,1.000000 721.000000,1.000000 1081.000000,1.000000
	C1081.000000,124.333336 1081.000000,247.666672 1081.000000,371.000000
	C955.166687,371.000000 829.333313,371.000000 703.000000,371.000000
M114.171158,55.998898
	C114.221413,69.951263 114.271660,83.903625 114.120888,98.598923
	C111.838905,101.951752 110.018822,99.036469 108.480591,97.923164
	C93.107872,86.797089 77.856491,75.503395 62.486874,64.372986
	C60.491741,62.928146 58.021622,62.139198 54.160770,60.264179
	C54.160770,70.168701 54.129421,78.460457 54.165768,86.751915
	C54.436665,148.548660 54.795437,210.345215 54.905853,272.142242
	C54.919491,279.775177 56.972260,285.641235 63.652878,289.800781
	C68.020569,292.520233 71.929962,295.967896 76.234276,298.801270
	C77.736862,299.790405 79.807121,299.917175 81.618141,300.437744
	C82.025833,298.731354 82.773605,297.028381 82.790688,295.318085
	C83.091782,265.170227 83.239670,235.020798 83.557098,204.873138
	C83.776192,184.064865 84.141724,163.257492 84.570518,142.452377
	C84.719368,135.229691 85.254990,128.014984 85.613960,120.796631
	C86.177063,120.469749 86.740173,120.142876 87.303284,119.815994
	C95.958549,127.212822 104.613823,134.609650 113.201317,142.842834
	C113.552795,149.259155 113.904266,155.675476 114.175011,163.004364
	C114.293556,173.309479 114.538048,183.614960 114.508797,193.919662
	C114.383736,237.983261 114.150620,282.046661 114.133591,326.110168
	C114.133087,327.429504 116.087852,328.749634 117.420700,330.650482
	C124.372406,336.077850 131.324112,341.505188 138.657120,347.533813
	C140.220352,348.115265 141.783569,348.696716 143.789841,349.442993
	C143.789841,344.436432 143.789841,340.303864 143.968643,335.229919
	C144.643616,304.741119 145.318573,274.252350 145.993546,243.763550
	C146.568817,243.594360 147.144089,243.425171 147.719360,243.255981
	C196.688263,281.038849 245.657150,318.821716 295.404053,357.204865
	C296.162231,355.015411 296.958862,353.690063 297.042328,352.321228
	C297.767944,340.422791 298.440460,328.519958 298.978455,316.611603
	C299.433899,306.529724 299.689606,296.438812 300.064514,285.449127
	C302.322113,286.543243 303.889893,287.042511 305.156250,287.958557
	C314.158539,294.470520 323.116028,301.044861 332.054169,307.644867
	C339.409058,313.075836 346.717712,318.569519 354.200836,324.685028
	C355.699524,326.041199 357.198212,327.397369 359.400421,329.390167
	C359.589294,326.946075 359.773651,325.677063 359.772980,324.408142
	C359.747894,276.217712 359.708862,228.027298 359.647034,179.836899
	C359.645569,178.707886 359.361298,177.579254 359.172394,175.457428
	C359.190155,166.147339 359.207947,156.837250 359.537994,146.945572
	C359.382141,144.091980 359.226318,141.238373 359.051453,137.399292
	C358.671661,127.292557 358.359558,117.182327 357.838837,107.082848
	C357.761230,105.577522 357.094208,103.697655 356.030365,102.718231
	C351.437439,98.489647 346.775635,94.288940 341.771332,90.573097
	C339.095276,88.586052 335.672424,87.604698 332.586609,86.169487
	C331.879486,89.440872 330.602814,92.703705 330.553528,95.984962
	C330.073364,127.951080 329.782562,159.920135 329.470917,191.888672
	C329.282562,211.207199 329.143890,230.526230 329.002167,249.845184
	C328.964111,255.035263 328.996429,260.225861 328.996429,265.416229
	C328.424988,265.555145 327.853577,265.694031 327.282135,265.832947
	C324.900391,264.392365 322.388947,263.126984 320.161926,261.477478
	C314.143463,257.019714 308.344543,252.260834 302.254761,247.906418
	C299.618866,246.021683 298.927094,243.898117 298.935303,240.794052
	C299.036713,202.474640 299.106140,164.154480 298.958649,125.835381
	C298.881104,105.694229 298.533264,85.549263 297.881836,65.419777
	C297.767303,61.879814 296.477173,57.492954 294.112000,55.089214
	C288.664185,49.552616 282.279419,44.921143 276.138672,40.095676
	C274.720764,38.981449 272.756134,38.562935 270.164703,37.445503
	C269.537598,72.610741 268.928680,106.756554 268.295654,142.255646
	C263.884827,139.669357 260.427551,138.079071 257.464996,135.835556
	C234.908005,118.753563 212.447052,101.544769 189.957458,84.373795
	C175.164551,73.079277 160.456482,61.671337 145.550339,50.528351
	C136.902985,44.064079 127.938766,38.023697 118.738998,31.222584
	C117.701530,30.783728 116.664070,30.344872 114.272972,29.333418
	C114.272972,38.422680 114.272972,46.749737 114.171158,55.998898
M817.753296,326.177979
	C817.753296,300.692291 817.753296,275.206604 817.753296,249.720901
	C818.055603,249.710236 818.357849,249.699570 818.660156,249.688889
	C822.615051,276.080170 826.569946,302.471436 830.508240,328.751526
	C833.369995,328.751526 835.644653,328.751526 838.114746,328.751526
	C842.107971,302.135193 846.068604,275.736115 850.029236,249.337036
	C850.369324,249.369614 850.709473,249.402206 851.049622,249.434784
	C851.049622,275.813721 851.049622,302.192657 851.049622,328.663544
	C856.663879,328.663544 861.881531,328.663544 866.895386,328.663544
	C866.895386,288.595001 866.895386,248.869873 866.895386,209.063751
	C859.721252,209.063751 852.927185,209.063751 845.712463,209.063751
	C842.029602,228.330887 838.362305,247.516266 834.695007,266.701660
	C834.446350,266.722656 834.197693,266.743652 833.949036,266.764648
	C830.275696,247.577820 826.602356,228.390991 822.944641,209.285843
	C815.550110,209.285843 808.500671,209.285843 801.577148,209.285843
	C801.577148,249.388382 801.577148,289.097076 801.577148,329.003876
	C806.295166,329.003876 810.626587,329.114868 814.943909,328.917847
	C815.900818,328.874176 816.808167,327.742798 817.753296,326.177979
M495.724854,226.739334
	C494.065979,220.858902 492.407104,214.978470 490.792664,209.255524
	C485.352081,209.255524 480.290466,209.255524 475.345581,209.255524
	C475.345581,249.338043 475.345581,289.055450 475.345581,328.686493
	C480.762177,328.686493 485.842468,328.686493 491.247772,328.686493
	C491.247772,306.165344 491.247772,283.963654 491.247772,261.761993
	C491.592194,261.695770 491.936615,261.629547 492.281036,261.563324
	C498.458710,283.998627 504.636383,306.433899 510.798187,328.811523
	C516.175659,328.811523 521.125977,328.811523 526.348877,328.811523
	C526.348877,288.887268 526.348877,249.159622 526.348877,209.261490
	C520.951599,209.261490 515.761230,209.261490 510.158630,209.261490
	C510.158630,231.828110 510.158630,254.028564 510.158630,276.229034
	C509.863251,276.271179 509.567841,276.313324 509.272461,276.355499
	C504.822357,260.080688 500.372253,243.805893 495.724854,226.739334
M508.599182,63.894142
	C506.857330,63.972836 505.115479,64.051529 503.428894,64.127724
	C503.428894,104.338013 503.428894,143.927872 503.428894,183.761414
	C508.768158,183.761414 513.866028,183.761414 519.651550,183.761414
	C519.651550,161.434158 519.651550,139.170898 519.651550,116.907639
	C519.978149,116.884605 520.304749,116.861572 520.631348,116.838539
	C526.776367,139.188522 532.921387,161.538498 538.993896,183.624817
	C544.539185,183.624817 549.608948,183.624817 554.489380,183.624817
	C554.489380,143.531525 554.489380,103.820473 554.489380,64.267815
	C549.006592,64.267815 543.922363,64.267815 538.458984,64.267815
	C538.458984,86.825172 538.458984,109.011177 538.458984,131.197189
	C537.427673,130.457245 537.086792,129.619263 536.848206,128.753113
	C531.728210,110.165245 526.631226,91.571037 521.503906,72.985176
	C518.994202,63.887772 518.970581,63.894287 508.599182,63.894142
M949.184509,268.499969
	C949.184509,288.586700 949.184509,308.673431 949.184509,328.713745
	C954.966370,328.713745 960.049683,328.713745 965.642700,328.713745
	C965.642700,306.233459 965.642700,284.039368 965.642700,261.845276
	C965.962646,261.806366 966.282593,261.767487 966.602600,261.728607
	C972.745239,284.081757 978.887878,306.434875 985.005554,328.697021
	C990.366638,328.697021 995.450745,328.697021 1000.566895,328.697021
	C1000.566895,288.669678 1000.566895,248.952118 1000.566895,209.197388
	C995.167236,209.197388 990.085449,209.197388 984.399963,209.197388
	C984.399963,231.738098 984.399963,253.981506 984.399963,276.224915
	C984.105652,276.245422 983.811340,276.265900 983.517029,276.286377
	C977.362976,253.893982 971.208923,231.501587 965.094177,209.252243
	C959.648560,209.252243 954.579651,209.252243 949.613647,209.252243
	C949.416504,209.914566 949.245239,210.222092 949.244751,210.529877
	C949.215820,229.519882 949.200806,248.509918 949.184509,268.499969
M591.487427,184.005600
	C594.486389,183.980957 597.501282,184.146072 600.481506,183.897156
	C610.666382,183.046494 618.828735,178.814392 622.832764,168.929245
	C628.886536,153.983871 627.912781,130.950089 614.329346,120.085678
	C624.251587,112.503044 625.929321,101.905724 624.857056,90.462547
	C623.915649,80.416290 620.951660,71.352798 610.715271,66.975426
	C599.946411,62.370365 588.629700,64.149414 577.420471,64.032928
	C577.420471,104.300171 577.420471,143.896271 577.420471,184.005539
	C581.926514,184.005539 586.211975,184.005539 591.487427,184.005600
M452.814056,169.493637
	C452.814056,157.538574 452.814056,145.583511 452.814056,133.697586
	C456.569580,132.570419 457.596527,133.900681 458.138885,137.077316
	C460.792755,152.621368 463.713623,168.119827 466.539551,183.631348
	C472.563477,183.631348 478.240143,183.631348 484.163147,183.631348
	C481.013702,167.223236 478.080353,151.194244 474.795288,135.237656
	C473.669189,129.767883 472.513702,124.813820 477.627686,120.488617
	C479.230621,119.132965 479.922028,116.453018 480.558685,114.243248
	C483.675934,103.423836 483.745514,92.544083 480.461243,81.750633
	C477.965759,73.549500 472.787262,67.133293 464.311218,65.630821
	C454.811951,63.946945 445.004974,63.998707 435.355225,63.296959
	C435.355225,104.325569 435.355225,144.054062 435.355225,183.695892
	C441.281525,183.695892 446.864868,183.695892 452.813995,183.695892
	C452.813995,179.093201 452.813995,174.791306 452.814056,169.493637
M552.382568,266.146149
	C555.591248,286.999451 558.799866,307.852783 562.011230,328.723602
	C568.089050,328.723602 573.851501,328.723602 579.746216,328.723602
	C585.833679,288.765198 591.882324,249.061325 597.970764,209.096512
	C592.029602,209.096512 586.585083,209.096512 580.814148,209.096512
	C577.640503,232.579361 574.487061,255.912445 571.333679,279.245514
	C570.994202,279.199402 570.654785,279.153290 570.315308,279.107178
	C567.180420,255.764786 564.045593,232.422379 560.927185,209.202362
	C554.919312,209.202362 549.493713,209.202362 543.802734,209.202362
	C546.641479,228.123962 549.428955,246.704208 552.382568,266.146149
M715.710205,322.149902
	C720.999512,314.866943 721.950989,306.507751 721.433228,297.902100
	C720.820435,287.718109 715.662292,279.288666 710.381714,270.979401
	C705.208984,262.839813 699.820801,254.835602 694.727661,246.647263
	C691.541077,241.524246 690.078430,235.787430 691.968689,229.930603
	C692.706909,227.643097 695.078308,224.443008 696.872925,224.330811
	C698.762634,224.212708 701.812744,226.916458 702.638611,229.051514
	C704.027954,232.643387 704.059753,236.760376 704.722412,241.043091
	C710.311279,240.481400 715.844727,239.925262 722.880432,239.218155
	C720.819031,231.664230 719.512573,224.660690 716.955261,218.148346
	C714.545654,212.012344 709.021362,208.932907 702.519165,208.005127
	C686.370789,205.701004 675.098389,215.389587 674.012817,232.239304
	C673.316406,243.050034 677.112488,252.533997 682.570190,261.429291
	C687.700134,269.790436 693.347107,277.832886 698.690552,286.064911
	C702.586731,292.067169 705.166626,298.500793 703.900757,305.842865
	C703.238708,309.683105 702.294617,313.689514 697.335449,313.954651
	C692.671265,314.204071 690.992126,310.635162 690.171448,306.984009
	C689.236755,302.825928 688.967529,298.518280 688.342468,293.769531
	C682.793457,294.292511 677.276367,294.812500 671.357056,295.370392
	C671.627441,299.668243 671.565063,303.506622 672.162781,307.239288
	C673.724548,316.991241 676.846924,326.075806 687.700439,328.901520
	C697.725891,331.511688 707.580444,331.511871 715.710205,322.149902
M889.869080,246.499985
	C889.869080,273.900574 889.869080,301.301147 889.869080,328.741577
	C903.575806,328.741577 916.650452,328.741577 929.831543,328.741577
	C929.831543,322.752167 929.831543,317.023132 929.831543,310.806091
	C922.337952,310.806091 915.108765,310.806091 907.772522,310.806091
	C907.772522,299.601532 907.772522,288.891266 907.772522,277.766663
	C913.230530,277.766663 918.333069,277.766663 923.624756,277.766663
	C923.624756,271.270874 923.624756,265.195526 923.624756,258.451111
	C918.173096,258.451111 912.962708,258.451111 907.643311,258.451111
	C907.643311,247.682648 907.643311,237.585693 907.643311,226.877914
	C915.237976,226.877914 922.616516,226.877914 929.718384,226.877914
	C929.718384,220.519424 929.718384,214.778458 929.718384,209.244415
	C916.255676,209.244415 903.182739,209.244415 889.869080,209.244415
	C889.869080,221.556763 889.869080,233.528366 889.869080,246.499985
M645.490967,310.912354
	C641.537415,310.912354 637.583923,310.912354 633.432007,310.912354
	C633.432007,299.694519 633.432007,288.980774 633.432007,277.864868
	C638.823975,277.864868 643.925354,277.864868 649.203003,277.864868
	C649.203003,271.277435 649.203003,265.099884 649.203003,258.420441
	C643.685974,258.420441 638.590454,258.420441 633.476929,258.420441
	C633.476929,247.684662 633.476929,237.463409 633.476929,226.853699
	C641.077332,226.853699 648.337646,226.853699 655.680176,226.853699
	C655.680176,220.723190 655.680176,214.991409 655.680176,209.289276
	C642.192871,209.289276 628.990723,209.289276 615.773682,209.289276
	C615.773682,249.275024 615.773682,288.872040 615.773682,328.722290
	C629.173096,328.722290 642.388611,328.722290 655.670837,328.722290
	C655.670837,322.709198 655.670837,316.977539 655.670837,310.912354
	C652.414307,310.912354 649.445007,310.912354 645.490967,310.912354
M1033.427856,243.501068
	C1033.427856,271.911926 1033.427856,300.322815 1033.427856,328.718933
	C1039.624390,328.718933 1045.209106,328.718933 1051.241943,328.718933
	C1051.241943,294.739014 1051.241943,261.045105 1051.241943,226.943298
	C1056.940796,226.943298 1062.199707,226.943298 1067.659912,226.943298
	C1067.659912,220.804092 1067.659912,215.078796 1067.659912,209.161087
	C1050.697998,209.161087 1033.991577,209.161087 1017.145447,209.161087
	C1017.145447,215.159058 1017.145447,220.885895 1017.145447,227.094803
	C1022.642090,227.094803 1027.888794,227.094803 1033.428101,227.094803
	C1033.428101,232.552261 1033.428101,237.527191 1033.427856,243.501068
M750.850708,327.309875
	C751.323914,327.856506 751.786987,328.867889 752.271790,328.878387
	C757.545715,328.992462 762.822998,328.949768 768.539307,328.949768
	C768.539307,294.678619 768.539307,260.963776 768.539307,226.829041
	C774.251404,226.829041 779.508179,226.829041 784.740784,226.829041
	C784.740784,220.666687 784.740784,214.933640 784.740784,209.238617
	C767.730652,209.238617 751.025391,209.238617 734.371582,209.238617
	C734.371582,215.307480 734.371582,221.034180 734.371582,227.168091
	C739.949524,227.168091 745.203979,227.168091 750.831909,227.168091
	C750.831909,260.503326 750.831909,293.421906 750.850708,327.309875
M435.015137,244.500000
	C435.015137,272.565674 435.015137,300.631317 435.015137,328.752747
	C441.186615,328.752747 446.767090,328.752747 452.572906,328.752747
	C452.572906,288.806122 452.572906,249.114075 452.572906,209.246429
	C446.634369,209.246429 440.944183,209.246429 435.015137,209.246429
	C435.015137,220.899063 435.015137,232.199524 435.015137,244.500000
z"/>
<path fill="#024BAD" opacity="1.000000" stroke="none"
	d="
M354.046844,324.035370
	C346.717712,318.569519 339.409058,313.075836 332.054169,307.644867
	C323.116028,301.044861 314.158539,294.470520 305.156250,287.958557
	C303.889893,287.042511 302.322113,286.543243 300.064514,285.449127
	C299.689606,296.438812 299.433899,306.529724 298.978455,316.611603
	C298.440460,328.519958 297.767944,340.422791 297.042328,352.321228
	C296.958862,353.690063 296.162231,355.015411 295.404053,357.204865
	C245.657150,318.821716 196.688263,281.038849 147.719360,243.255981
	C147.144089,243.425171 146.568817,243.594360 145.993546,243.763550
	C145.318573,274.252350 144.643616,304.741119 143.657990,335.979919
	C142.673813,340.636322 143.539230,345.307678 138.275818,346.932526
	C131.324112,341.505188 124.372406,336.077850 117.296455,330.167725
	C117.172211,329.684967 117.187981,329.299072 117.438568,328.936523
	C117.760414,307.736237 117.831665,286.898468 117.937134,265.587341
	C117.980354,260.631958 118.100983,256.146667 117.969238,251.668808
	C117.815056,246.428482 117.440994,241.194626 117.106056,235.495148
	C117.017021,228.308914 116.984245,221.585495 116.987625,214.409088
	C116.987411,202.045578 116.978836,190.134842 116.877792,178.224884
	C116.865814,176.813217 116.348030,175.405823 116.042168,173.541412
	C115.725983,169.405060 115.432327,165.723785 115.079971,161.572433
	C114.988121,156.665192 115.114250,152.218445 114.848740,147.795227
	C114.731438,145.841080 113.820007,143.934601 113.269089,142.006485
	C104.613823,134.609650 95.958549,127.212822 87.303284,119.815994
	C86.740173,120.142876 86.177063,120.469749 85.613960,120.796631
	C85.254990,128.014984 84.719368,135.229691 84.570518,142.452377
	C84.141724,163.257492 83.776192,184.064865 83.557098,204.873138
	C83.239670,235.020798 83.091782,265.170227 82.790688,295.318085
	C82.773605,297.028381 82.025833,298.731354 81.618134,300.437744
	C79.807121,299.917175 77.736862,299.790405 76.234276,298.801270
	C71.929962,295.967896 68.020569,292.520233 63.652878,289.800781
	C56.972260,285.641235 54.919491,279.775177 54.905853,272.142242
	C54.795437,210.345215 54.436665,148.548660 54.165768,86.751915
	C54.129421,78.460457 54.160770,70.168701 54.160770,60.264179
	C58.021622,62.139198 60.491741,62.928146 62.486874,64.372986
	C77.856491,75.503395 93.107872,86.797089 108.480591,97.923164
	C110.018822,99.036469 111.838905,101.951752 114.435234,97.925911
	C115.211334,92.794563 115.673096,88.336235 116.402390,83.580009
	C116.744713,67.489220 116.819511,51.696323 116.898743,35.542450
	C117.641174,34.051834 118.379166,32.922195 119.117149,31.792561
	C127.938766,38.023697 136.902985,44.064079 145.550339,50.528351
	C160.456482,61.671337 175.164551,73.079277 189.957458,84.373795
	C212.447052,101.544769 234.908005,118.753563 257.464996,135.835556
	C260.427551,138.079071 263.884827,139.669357 268.295654,142.255646
	C268.928680,106.756554 269.537598,72.610741 270.164703,37.445503
	C272.756134,38.562935 274.720764,38.981449 276.138672,40.095676
	C282.279419,44.921143 288.664185,49.552616 294.112000,55.089214
	C296.477173,57.492954 297.767303,61.879814 297.881836,65.419777
	C298.533264,85.549263 298.881104,105.694229 298.958649,125.835381
	C299.106140,164.154480 299.036713,202.474640 298.935303,240.794052
	C298.927094,243.898117 299.618866,246.021683 302.254761,247.906418
	C308.344543,252.260834 314.143463,257.019714 320.161926,261.477478
	C322.388947,263.126984 324.900391,264.392365 327.282135,265.832947
	C327.853577,265.694031 328.424988,265.555145 328.996429,265.416229
	C328.996429,260.225861 328.964111,255.035263 329.002167,249.845184
	C329.143890,230.526230 329.282562,211.207199 329.470917,191.888672
	C329.782562,159.920135 330.073364,127.951080 330.553528,95.984962
	C330.602814,92.703705 331.879486,89.440872 332.586609,86.169487
	C335.672424,87.604698 339.095276,88.586052 341.771332,90.573097
	C346.775635,94.288940 351.437439,98.489647 356.030365,102.718231
	C357.094208,103.697655 357.761230,105.577522 357.838837,107.082848
	C358.359558,117.182327 358.671661,127.292557 358.990112,138.293671
	C359.027771,141.967758 359.126740,144.747467 359.225708,147.527161
	C359.207947,156.837250 359.190155,166.147339 359.097321,176.359589
	C359.014709,212.235794 359.091858,247.210159 358.953400,282.183685
	C358.905334,294.321991 358.388489,306.460663 357.930023,318.593262
	C357.837982,321.029480 358.314850,324.361389 354.046844,324.035370
M236.701721,197.806335
	C246.665253,205.151810 256.628784,212.497269 267.311493,220.372940
	C268.084076,217.564209 268.771667,216.181595 268.798950,214.786072
	C268.994080,204.801666 269.170624,194.812958 269.027588,184.830292
	C269.007202,183.406982 267.511444,181.645294 266.225555,180.653351
	C245.549881,164.703690 224.784912,148.869843 204.066345,132.975647
	C187.303162,120.115807 170.595612,107.183296 153.805054,94.359383
	C151.674957,92.732491 149.191132,91.568726 145.467529,89.356445
	C145.467529,101.603302 145.585800,112.219536 145.395050,122.830208
	C145.338226,125.991272 146.317200,127.977325 148.840897,129.917267
	C177.995117,152.327789 207.055527,174.860336 236.701721,197.806335
M269.018188,270.575500
	C270.206543,262.351013 266.966309,256.397095 259.808105,252.363785
	C258.370544,251.553772 257.130707,250.391113 255.806152,249.382553
	C222.424973,223.964630 189.054367,198.532776 155.647385,173.148834
	C152.684814,170.897736 149.486145,168.957352 146.153625,166.708344
	C145.626465,167.956024 145.164719,168.545700 145.157303,169.141052
	C145.020462,180.133896 144.866440,191.127930 144.947372,202.120026
	C144.956070,203.300598 146.152374,204.794083 147.210999,205.598785
	C185.648758,234.816376 224.132294,263.973785 262.628754,293.114044
	C264.041260,294.183258 265.646729,294.997467 268.781921,296.927643
	C268.901184,287.584961 269.003540,279.568176 269.018188,270.575500
z"/>
<path fill="#4E4E4E" opacity="1.000000" stroke="none"
	d="
M817.745789,326.645111
	C816.808167,327.742798 815.900818,328.874176 814.943909,328.917847
	C810.626587,329.114868 806.295166,329.003876 801.577148,329.003876
	C801.577148,289.097076 801.577148,249.388382 801.577148,209.285843
	C808.500671,209.285843 815.550110,209.285843 822.944641,209.285843
	C826.602356,228.390991 830.275696,247.577820 833.949036,266.764648
	C834.197693,266.743652 834.446350,266.722656 834.695007,266.701660
	C838.362305,247.516266 842.029602,228.330887 845.712463,209.063751
	C852.927185,209.063751 859.721252,209.063751 866.895386,209.063751
	C866.895386,248.869873 866.895386,288.595001 866.895386,328.663544
	C861.881531,328.663544 856.663879,328.663544 851.049622,328.663544
	C851.049622,302.192657 851.049622,275.813721 851.049622,249.434784
	C850.709473,249.402206 850.369324,249.369614 850.029236,249.337036
	C846.068604,275.736115 842.107971,302.135193 838.114746,328.751526
	C835.644653,328.751526 833.369995,328.751526 830.508240,328.751526
	C826.569946,302.471436 822.615051,276.080170 818.660156,249.688889
	C818.357849,249.699570 818.055603,249.710236 817.753296,249.720901
	C817.753296,275.206604 817.753296,300.692291 817.745789,326.645111
z"/>
<path fill="#4F4F4F" opacity="1.000000" stroke="none"
	d="
M495.823486,227.135223
	C500.372253,243.805893 504.822357,260.080688 509.272461,276.355499
	C509.567841,276.313324 509.863251,276.271179 510.158630,276.229034
	C510.158630,254.028564 510.158630,231.828110 510.158630,209.261490
	C515.761230,209.261490 520.951599,209.261490 526.348877,209.261490
	C526.348877,249.159622 526.348877,288.887268 526.348877,328.811523
	C521.125977,328.811523 516.175659,328.811523 510.798187,328.811523
	C504.636383,306.433899 498.458710,283.998627 492.281036,261.563324
	C491.936615,261.629547 491.592194,261.695770 491.247772,261.761993
	C491.247772,283.963654 491.247772,306.165344 491.247772,328.686493
	C485.842468,328.686493 480.762177,328.686493 475.345581,328.686493
	C475.345581,289.055450 475.345581,249.338043 475.345581,209.255524
	C480.290466,209.255524 485.352081,209.255524 490.792664,209.255524
	C492.407104,214.978470 494.065979,220.858902 495.823486,227.135223
z"/>
<path fill="#4E4E4E" opacity="1.000000" stroke="none"
	d="
M509.073364,63.894135
	C518.970581,63.894287 518.994202,63.887772 521.503906,72.985176
	C526.631226,91.571037 531.728210,110.165245 536.848206,128.753113
	C537.086792,129.619263 537.427673,130.457245 538.458984,131.197189
	C538.458984,109.011177 538.458984,86.825172 538.458984,64.267815
	C543.922363,64.267815 549.006592,64.267815 554.489380,64.267815
	C554.489380,103.820473 554.489380,143.531525 554.489380,183.624817
	C549.608948,183.624817 544.539185,183.624817 538.993896,183.624817
	C532.921387,161.538498 526.776367,139.188522 520.631348,116.838539
	C520.304749,116.861572 519.978149,116.884605 519.651550,116.907639
	C519.651550,139.170898 519.651550,161.434158 519.651550,183.761414
	C513.866028,183.761414 508.768158,183.761414 503.428894,183.761414
	C503.428894,143.927872 503.428894,104.338013 503.428894,64.127724
	C505.115479,64.051529 506.857330,63.972836 509.073364,63.894135
z"/>
<path fill="#4E4E4E" opacity="1.000000" stroke="none"
	d="
M949.184509,267.999939
	C949.200806,248.509918 949.215820,229.519882 949.244751,210.529877
	C949.245239,210.222092 949.416504,209.914566 949.613647,209.252243
	C954.579651,209.252243 959.648560,209.252243 965.094177,209.252243
	C971.208923,231.501587 977.362976,253.893982 983.517029,276.286377
	C983.811340,276.265900 984.105652,276.245422 984.399963,276.224915
	C984.399963,253.981506 984.399963,231.738098 984.399963,209.197388
	C990.085449,209.197388 995.167236,209.197388 1000.566895,209.197388
	C1000.566895,248.952118 1000.566895,288.669678 1000.566895,328.697021
	C995.450745,328.697021 990.366638,328.697021 985.005554,328.697021
	C978.887878,306.434875 972.745239,284.081757 966.602600,261.728607
	C966.282593,261.767487 965.962646,261.806366 965.642700,261.845276
	C965.642700,284.039368 965.642700,306.233459 965.642700,328.713745
	C960.049683,328.713745 954.966370,328.713745 949.184509,328.713745
	C949.184509,308.673431 949.184509,288.586700 949.184509,267.999939
z"/>
<path fill="#4E4E4E" opacity="1.000000" stroke="none"
	d="
M590.992432,184.005569
	C586.211975,184.005539 581.926514,184.005539 577.420471,184.005539
	C577.420471,143.896271 577.420471,104.300171 577.420471,64.032928
	C588.629700,64.149414 599.946411,62.370365 610.715271,66.975426
	C620.951660,71.352798 623.915649,80.416290 624.857056,90.462547
	C625.929321,101.905724 624.251587,112.503044 614.329346,120.085678
	C627.912781,130.950089 628.886536,153.983871 622.832764,168.929245
	C618.828735,178.814392 610.666382,183.046494 600.481506,183.897156
	C597.501282,184.146072 594.486389,183.980957 590.992432,184.005569
M594.978394,141.514938
	C594.978394,149.745056 594.978394,157.975174 594.978394,166.191071
	C602.261292,166.131409 605.974915,164.024002 606.721436,157.926208
	C607.535339,151.277634 607.520508,144.346146 606.586792,137.718323
	C605.727539,131.618668 601.707825,129.554810 594.978394,130.136841
	C594.978394,133.573669 594.978394,137.046906 594.978394,141.514938
M605.875488,108.118965
	C608.579346,102.098396 608.685059,95.879311 607.019104,89.625168
	C605.440430,83.698730 601.651794,81.296043 595.252319,81.851852
	C595.252319,92.239304 595.252319,102.627602 595.252319,113.028481
	C599.687622,113.589676 602.994873,112.167084 605.875488,108.118965
z"/>
<path fill="#4D4D4D" opacity="1.000000" stroke="none"
	d="
M452.814026,169.991516
	C452.813995,174.791306 452.813995,179.093201 452.813995,183.695892
	C446.864868,183.695892 441.281525,183.695892 435.355225,183.695892
	C435.355225,144.054062 435.355225,104.325569 435.355225,63.296959
	C445.004974,63.998707 454.811951,63.946945 464.311218,65.630821
	C472.787262,67.133293 477.965759,73.549500 480.461243,81.750633
	C483.745514,92.544083 483.675934,103.423836 480.558685,114.243248
	C479.922028,116.453018 479.230621,119.132965 477.627686,120.488617
	C472.513702,124.813820 473.669189,129.767883 474.795288,135.237656
	C478.080353,151.194244 481.013702,167.223236 484.163147,183.631348
	C478.240143,183.631348 472.563477,183.631348 466.539551,183.631348
	C463.713623,168.119827 460.792755,152.621368 458.138885,137.077316
	C457.596527,133.900681 456.569580,132.570419 452.814056,133.697586
	C452.814056,145.583511 452.814056,157.538574 452.814026,169.991516
M453.311768,116.725655
	C459.749054,116.399689 463.778687,113.809807 464.640808,107.748444
	C465.445679,102.089569 465.441376,96.133995 464.629944,90.475830
	C463.746582,84.315987 459.934113,81.903847 452.892639,81.580124
	C452.892639,93.045036 452.892639,104.496094 453.311768,116.725655
z"/>
<path fill="#4D4D4D" opacity="1.000000" stroke="none"
	d="
M552.299561,265.715302
	C549.428955,246.704208 546.641479,228.123962 543.802734,209.202362
	C549.493713,209.202362 554.919312,209.202362 560.927185,209.202362
	C564.045593,232.422379 567.180420,255.764786 570.315308,279.107178
	C570.654785,279.153290 570.994202,279.199402 571.333679,279.245514
	C574.487061,255.912445 577.640503,232.579361 580.814148,209.096512
	C586.585083,209.096512 592.029602,209.096512 597.970764,209.096512
	C591.882324,249.061325 585.833679,288.765198 579.746216,328.723602
	C573.851501,328.723602 568.089050,328.723602 562.011230,328.723602
	C558.799866,307.852783 555.591248,286.999451 552.299561,265.715302
z"/>
<path fill="#4D4D4D" opacity="1.000000" stroke="none"
	d="
M715.467651,322.420319
	C707.580444,331.511871 697.725891,331.511688 687.700439,328.901520
	C676.846924,326.075806 673.724548,316.991241 672.162781,307.239288
	C671.565063,303.506622 671.627441,299.668243 671.357056,295.370392
	C677.276367,294.812500 682.793457,294.292511 688.342468,293.769531
	C688.967529,298.518280 689.236755,302.825928 690.171448,306.984009
	C690.992126,310.635162 692.671265,314.204071 697.335449,313.954651
	C702.294617,313.689514 703.238708,309.683105 703.900757,305.842865
	C705.166626,298.500793 702.586731,292.067169 698.690552,286.064911
	C693.347107,277.832886 687.700134,269.790436 682.570190,261.429291
	C677.112488,252.533997 673.316406,243.050034 674.012817,232.239304
	C675.098389,215.389587 686.370789,205.701004 702.519165,208.005127
	C709.021362,208.932907 714.545654,212.012344 716.955261,218.148346
	C719.512573,224.660690 720.819031,231.664230 722.880432,239.218155
	C715.844727,239.925262 710.311279,240.481400 704.722412,241.043091
	C704.059753,236.760376 704.027954,232.643387 702.638611,229.051514
	C701.812744,226.916458 698.762634,224.212708 696.872925,224.330811
	C695.078308,224.443008 692.706909,227.643097 691.968689,229.930603
	C690.078430,235.787430 691.541077,241.524246 694.727661,246.647263
	C699.820801,254.835602 705.208984,262.839813 710.381714,270.979401
	C715.662292,279.288666 720.820435,287.718109 721.433228,297.902100
	C721.950989,306.507751 720.999512,314.866943 715.467651,322.420319
z"/>
<path fill="#4B4B4B" opacity="1.000000" stroke="none"
	d="
M889.869080,245.999969
	C889.869080,233.528366 889.869080,221.556763 889.869080,209.244415
	C903.182739,209.244415 916.255676,209.244415 929.718384,209.244415
	C929.718384,214.778458 929.718384,220.519424 929.718384,226.877914
	C922.616516,226.877914 915.237976,226.877914 907.643311,226.877914
	C907.643311,237.585693 907.643311,247.682648 907.643311,258.451111
	C912.962708,258.451111 918.173096,258.451111 923.624756,258.451111
	C923.624756,265.195526 923.624756,271.270874 923.624756,277.766663
	C918.333069,277.766663 913.230530,277.766663 907.772522,277.766663
	C907.772522,288.891266 907.772522,299.601532 907.772522,310.806091
	C915.108765,310.806091 922.337952,310.806091 929.831543,310.806091
	C929.831543,317.023132 929.831543,322.752167 929.831543,328.741577
	C916.650452,328.741577 903.575806,328.741577 889.869080,328.741577
	C889.869080,301.301147 889.869080,273.900574 889.869080,245.999969
z"/>
<path fill="#4C4C4C" opacity="1.000000" stroke="none"
	d="
M645.983337,310.912354
	C649.445007,310.912354 652.414307,310.912354 655.670837,310.912354
	C655.670837,316.977539 655.670837,322.709198 655.670837,328.722290
	C642.388611,328.722290 629.173096,328.722290 615.773682,328.722290
	C615.773682,288.872040 615.773682,249.275024 615.773682,209.289276
	C628.990723,209.289276 642.192871,209.289276 655.680176,209.289276
	C655.680176,214.991409 655.680176,220.723190 655.680176,226.853699
	C648.337646,226.853699 641.077332,226.853699 633.476929,226.853699
	C633.476929,237.463409 633.476929,247.684662 633.476929,258.420441
	C638.590454,258.420441 643.685974,258.420441 649.203003,258.420441
	C649.203003,265.099884 649.203003,271.277435 649.203003,277.864868
	C643.925354,277.864868 638.823975,277.864868 633.432007,277.864868
	C633.432007,288.980774 633.432007,299.694519 633.432007,310.912354
	C637.583923,310.912354 641.537415,310.912354 645.983337,310.912354
z"/>
<path fill="#4E4E4E" opacity="1.000000" stroke="none"
	d="
M1033.427979,243.001587
	C1033.428101,237.527191 1033.428101,232.552261 1033.428101,227.094803
	C1027.888794,227.094803 1022.642090,227.094803 1017.145447,227.094803
	C1017.145447,220.885895 1017.145447,215.159058 1017.145447,209.161087
	C1033.991577,209.161087 1050.697998,209.161087 1067.659912,209.161087
	C1067.659912,215.078796 1067.659912,220.804092 1067.659912,226.943298
	C1062.199707,226.943298 1056.940796,226.943298 1051.241943,226.943298
	C1051.241943,261.045105 1051.241943,294.739014 1051.241943,328.718933
	C1045.209106,328.718933 1039.624390,328.718933 1033.427856,328.718933
	C1033.427856,300.322815 1033.427856,271.911926 1033.427979,243.001587
z"/>
<path fill="#4B4B4B" opacity="1.000000" stroke="none"
	d="
M750.841309,326.825195
	C750.831909,293.421906 750.831909,260.503326 750.831909,227.168091
	C745.203979,227.168091 739.949524,227.168091 734.371582,227.168091
	C734.371582,221.034180 734.371582,215.307480 734.371582,209.238617
	C751.025391,209.238617 767.730652,209.238617 784.740784,209.238617
	C784.740784,214.933640 784.740784,220.666687 784.740784,226.829041
	C779.508179,226.829041 774.251404,226.829041 768.539307,226.829041
	C768.539307,260.963776 768.539307,294.678619 768.539307,328.949768
	C762.822998,328.949768 757.545715,328.992462 752.271790,328.878387
	C751.786987,328.867889 751.323914,327.856506 750.841309,326.825195
z"/>
<path fill="#4E4E4E" opacity="1.000000" stroke="none"
	d="
M435.015137,244.000000
	C435.015137,232.199524 435.015137,220.899063 435.015137,209.246429
	C440.944183,209.246429 446.634369,209.246429 452.572906,209.246429
	C452.572906,249.114075 452.572906,288.806122 452.572906,328.752747
	C446.767090,328.752747 441.186615,328.752747 435.015137,328.752747
	C435.015137,300.631317 435.015137,272.565674 435.015137,244.000000
z"/>
<path fill="#723439" opacity="1.000000" stroke="none"
	d="
M117.187973,329.299072
	C117.187981,329.299072 117.172211,329.684967 117.151611,329.877197
	C116.087852,328.749634 114.133087,327.429504 114.133591,326.110168
	C114.150620,282.046661 114.383736,237.983261 114.508797,193.919662
	C114.538048,183.614960 114.293556,173.309479 114.436981,162.551468
	C114.698959,162.098572 115.138672,162.042496 115.138672,162.042496
	C115.432327,165.723785 115.725983,169.405060 115.993546,174.007767
	C116.007317,186.834457 116.018990,198.739960 116.124481,210.644653
	C116.136955,212.052795 116.663315,213.456375 116.951469,214.862076
	C116.984245,221.585495 117.017021,228.308914 117.045868,235.965912
	C117.073174,246.595200 117.104393,256.290894 117.085312,266.453583
	C117.085999,287.713409 117.136986,308.506256 117.187973,329.299072
z"/>
<path fill="#906572" opacity="1.000000" stroke="none"
	d="
M354.123840,324.360199
	C358.314850,324.361389 357.837982,321.029480 357.930023,318.593262
	C358.388489,306.460663 358.905334,294.321991 358.953400,282.183685
	C359.091858,247.210159 359.014709,212.235794 359.115601,176.856110
	C359.361298,177.579254 359.645569,178.707886 359.647034,179.836899
	C359.708862,228.027298 359.747894,276.217712 359.772980,324.408142
	C359.773651,325.677063 359.589294,326.946075 359.400421,329.390167
	C357.198212,327.397369 355.699524,326.041199 354.123840,324.360199
z"/>
<path fill="#72373D" opacity="1.000000" stroke="none"
	d="
M116.134857,83.877899
	C115.673096,88.336235 115.211334,92.794563 114.535751,97.554443
	C114.271660,83.903625 114.221413,69.951263 114.492081,55.524422
	C115.170395,55.005428 115.527779,54.960903 115.929222,55.392532
	C116.027138,65.205086 116.081001,74.541496 116.134857,83.877899
z"/>
<path fill="#946469" opacity="1.000000" stroke="none"
	d="
M115.885162,54.916378
	C115.527779,54.960903 115.170395,55.005428 114.542992,55.063370
	C114.272972,46.749737 114.272972,38.422680 114.272972,29.333418
	C116.664070,30.344872 117.701530,30.783728 118.928070,31.507572
	C118.379166,32.922195 117.641174,34.051834 116.642120,35.873672
	C116.215752,42.682709 116.050453,48.799541 115.885162,54.916378
z"/>
<path fill="#7C5464" opacity="1.000000" stroke="none"
	d="
M138.466476,347.233154
	C143.539230,345.307678 142.673813,340.636322 143.568604,336.450623
	C143.789841,340.303864 143.789841,344.436432 143.789841,349.442993
	C141.783569,348.696716 140.220352,348.115265 138.466476,347.233154
z"/>
<path fill="#9B6E72" opacity="1.000000" stroke="none"
	d="
M115.079971,161.572433
	C115.138672,162.042496 114.698959,162.098572 114.477356,162.095184
	C113.904266,155.675476 113.552795,149.259155 113.235199,142.424652
	C113.820007,143.934601 114.731438,145.841080 114.848740,147.795227
	C115.114250,152.218445 114.988121,156.665192 115.079971,161.572433
z"/>
<path fill="#906572" opacity="1.000000" stroke="none"
	d="
M359.381836,147.236359
	C359.126740,144.747467 359.027771,141.967758 358.999634,138.786423
	C359.226318,141.238373 359.382141,144.091980 359.381836,147.236359
z"/>
<path fill="#FDFEFE" opacity="1.000000" stroke="none"
	d="
M236.421295,197.583405
	C207.055527,174.860336 177.995117,152.327789 148.840897,129.917267
	C146.317200,127.977325 145.338226,125.991272 145.395050,122.830208
	C145.585800,112.219536 145.467529,101.603302 145.467529,89.356445
	C149.191132,91.568726 151.674957,92.732491 153.805054,94.359383
	C170.595612,107.183296 187.303162,120.115807 204.066345,132.975647
	C224.784912,148.869843 245.549881,164.703690 266.225555,180.653351
	C267.511444,181.645294 269.007202,183.406982 269.027588,184.830292
	C269.170624,194.812958 268.994080,204.801666 268.798950,214.786072
	C268.771667,216.181595 268.084076,217.564209 267.311493,220.372940
	C256.628784,212.497269 246.665253,205.151810 236.421295,197.583405
z"/>
<path fill="#FDFEFE" opacity="1.000000" stroke="none"
	d="
M269.062012,271.063416
	C269.003540,279.568176 268.901184,287.584961 268.781921,296.927643
	C265.646729,294.997467 264.041260,294.183258 262.628754,293.114044
	C224.132294,263.973785 185.648758,234.816376 147.210999,205.598785
	C146.152374,204.794083 144.956070,203.300598 144.947372,202.120026
	C144.866440,191.127930 145.020462,180.133896 145.157303,169.141052
	C145.164719,168.545700 145.626465,167.956024 146.153625,166.708344
	C149.486145,168.957352 152.684814,170.897736 155.647385,173.148834
	C189.054367,198.532776 222.424973,223.964630 255.806152,249.382553
	C257.130707,250.391113 258.370544,251.553772 259.808105,252.363785
	C266.966309,256.397095 270.206543,262.351013 269.062012,271.063416
z"/>
<path fill="#5C71A6" opacity="1.000000" stroke="none"
	d="
M117.438568,328.936523
	C117.136986,308.506256 117.085999,287.713409 117.277214,266.469055
	C117.519424,266.017517 117.902916,266.060699 117.902916,266.060699
	C117.831665,286.898468 117.760414,307.736237 117.438568,328.936523
z"/>
<path fill="#3C6CB3" opacity="1.000000" stroke="none"
	d="
M115.929214,55.392532
	C116.050453,48.799541 116.215752,42.682709 116.637680,36.234650
	C116.819511,51.696323 116.744713,67.489220 116.402390,83.580009
	C116.081001,74.541496 116.027138,65.205086 115.929214,55.392532
z"/>
<path fill="#5A6899" opacity="1.000000" stroke="none"
	d="
M116.987625,214.409088
	C116.663315,213.456375 116.136955,212.052795 116.124481,210.644653
	C116.018990,198.739960 116.007317,186.834457 116.016083,174.462830
	C116.348030,175.405823 116.865814,176.813217 116.877792,178.224884
	C116.978836,190.134842 116.987411,202.045578 116.987625,214.409088
z"/>
<path fill="#356AB5" opacity="1.000000" stroke="none"
	d="
M117.937134,265.587341
	C117.902916,266.060699 117.519424,266.017517 117.327522,266.002045
	C117.104393,256.290894 117.073174,246.595200 117.102127,236.428741
	C117.440994,241.194626 117.815056,246.428482 117.969238,251.668808
	C118.100983,256.146667 117.980354,260.631958 117.937134,265.587341
z"/>
<path fill="#FDFDFD" opacity="1.000000" stroke="none"
	d="
M594.978394,141.017548
	C594.978394,137.046906 594.978394,133.573669 594.978394,130.136841
	C601.707825,129.554810 605.727539,131.618668 606.586792,137.718323
	C607.520508,144.346146 607.535339,151.277634 606.721436,157.926208
	C605.974915,164.024002 602.261292,166.131409 594.978394,166.191071
	C594.978394,157.975174 594.978394,149.745056 594.978394,141.017548
z"/>
<path fill="#FCFCFC" opacity="1.000000" stroke="none"
	d="
M605.670227,108.449005
	C602.994873,112.167084 599.687622,113.589676 595.252319,113.028481
	C595.252319,102.627602 595.252319,92.239304 595.252319,81.851852
	C601.651794,81.296043 605.440430,83.698730 607.019104,89.625168
	C608.685059,95.879311 608.579346,102.098396 605.670227,108.449005
z"/>
<path fill="#FBFBFB" opacity="1.000000" stroke="none"
	d="
M453.102203,116.336411
	C452.892639,104.496094 452.892639,93.045036 452.892639,81.580124
	C459.934113,81.903847 463.746582,84.315987 464.629944,90.475830
	C465.441376,96.133995 465.445679,102.089569 464.640808,107.748444
	C463.778687,113.809807 459.749054,116.399689 453.102203,116.336411
z"/>
</svg>
